<svg version="1.1" xmlns="http://www.w3.org/2000/svg" viewBox="0 0 151.64548610822658 148.1310586099261" width="454.93645832467973" height="444.39317582977833">
  <!-- svg-source:excalidraw -->
  
  <defs>
    <style class="style-fonts">
      @font-face {
        font-family: "Virgil";
        src: url("https://excalidraw.com/Virgil.woff2");
      }
      @font-face {
        font-family: "Cascadia";
        src: url("https://excalidraw.com/Cascadia.woff2");
      }
    </style>
  </defs>
  <g stroke-linecap="round"><g transform="translate(66.77563712446226 104.04496057947475) rotate(0 9.04710592965057 -29.97943127451167)"><path d="M0 0 C0 -5.33, -0.8 -27.64, 0 -31.95 C0.8 -36.27, 3.11 -25.03, 4.83 -25.89 C6.54 -26.75, 9.03 -45.39, 10.3 -37.11 C11.57 -28.84, 9.66 14.93, 12.44 23.76 C15.22 32.59, 24.49 19.89, 26.99 15.89 C29.5 11.88, 40.12 -3.31, 27.46 -0.28 C14.8 2.75, -36.1 34.19, -48.96 34.09 C-61.83 33.98, -56.4 12.58, -49.74 -0.9 C-43.08 -14.38, -29.78 -31.28, -9.02 -46.8 C11.75 -62.33, 60.89 -86.17, 74.87 -94.04 M0 0 C0 -5.33, -0.8 -27.64, 0 -31.95 C0.8 -36.27, 3.11 -25.03, 4.83 -25.89 C6.54 -26.75, 9.03 -45.39, 10.3 -37.11 C11.57 -28.84, 9.66 14.93, 12.44 23.76 C15.22 32.59, 24.49 19.89, 26.99 15.89 C29.5 11.88, 40.12 -3.31, 27.46 -0.28 C14.8 2.75, -36.1 34.19, -48.96 34.09 C-61.83 33.98, -56.4 12.58, -49.74 -0.9 C-43.08 -14.38, -29.78 -31.28, -9.02 -46.8 C11.75 -62.33, 60.89 -86.17, 74.87 -94.04" stroke="#000000" stroke-width="4" fill="none"></path></g></g><mask></mask></svg>