<svg version="1.1" xmlns="http://www.w3.org/2000/svg" viewBox="0 0 246.75084397177307 254.2485212115689" width="740.2525319153192" height="762.7455636347067">
  <!-- svg-source:excalidraw -->
  
  <defs>
    <style class="style-fonts">
      @font-face {
        font-family: "Virgil";
        src: url("https://excalidraw.com/Virgil.woff2");
      }
      @font-face {
        font-family: "Cascadia";
        src: url("https://excalidraw.com/Cascadia.woff2");
      }
    </style>
  </defs>
  <g transform="translate(48.08764293003878 191.52751226591818) rotate(0 75.28777905584775 -64.40325166013372)" stroke="none"><path fill="#000000" d="M -3.64,-0.20 Q -3.64,-0.20 -3.34,-4.19 -3.04,-8.18 -2.83,-15.44 -2.62,-22.70 -2.49,-32.64 -2.37,-42.58 -2.29,-58.59 -2.21,-74.59 -2.15,-86.18 -2.10,-97.76 -2.06,-105.55 -2.03,-113.34 -2.00,-118.33 -1.98,-123.33 -2.17,-126.41 -2.36,-129.49 -2.69,-131.72 -3.03,-133.96 -2.97,-134.41 -2.92,-134.87 -2.75,-135.30 -2.59,-135.73 -2.33,-136.11 -2.07,-136.48 -1.73,-136.79 -1.38,-137.09 -0.98,-137.31 -0.57,-137.52 -0.12,-137.63 0.31,-137.74 0.77,-137.74 1.23,-137.74 1.68,-137.63 2.12,-137.52 2.53,-137.31 2.94,-137.09 3.28,-136.79 3.63,-136.48 3.89,-136.11 4.15,-135.73 4.31,-135.30 4.47,-134.87 4.53,-134.41 4.58,-133.96 6.56,-132.78 8.54,-131.60 10.18,-129.91 11.82,-128.23 14.61,-125.38 17.40,-122.54 21.01,-120.02 24.61,-117.51 26.61,-116.17 28.61,-114.84 30.41,-113.52 32.21,-112.21 34.92,-110.07 37.63,-107.93 40.32,-106.65 43.00,-105.38 40.88,-105.59 38.76,-105.81 36.61,-105.20 34.45,-104.60 35.84,-107.63 37.22,-110.65 38.91,-113.15 40.61,-115.65 42.73,-118.77 44.85,-121.88 47.43,-125.32 50.01,-128.76 51.74,-130.88 53.46,-133.00 55.08,-135.20 56.70,-137.40 58.58,-139.94 60.46,-142.48 62.63,-145.15 64.80,-147.82 66.81,-150.51 68.82,-153.20 70.93,-156.10 73.03,-159.00 75.43,-162.13 77.84,-165.25 80.34,-168.43 82.83,-171.62 84.85,-174.29 86.87,-176.97 88.25,-178.75 89.63,-180.54 91.00,-182.41 92.37,-184.28 95.89,-184.33 99.41,-184.37 100.69,-182.08 101.97,-179.80 102.20,-177.32 102.44,-174.84 102.61,-171.73 102.79,-168.63 103.37,-165.75 103.96,-162.87 104.84,-160.69 105.73,-158.51 106.84,-156.36 107.94,-154.22 110.32,-150.68 112.69,-147.14 115.12,-143.94 117.56,-140.74 119.92,-137.89 122.29,-135.04 124.25,-132.64 126.20,-130.24 127.36,-128.15 128.53,-126.07 129.89,-124.10 131.25,-122.12 133.00,-120.10 134.76,-118.08 136.48,-115.83 138.19,-113.58 135.77,-113.52 133.35,-113.45 132.79,-116.53 132.22,-119.61 133.17,-121.63 134.11,-123.65 135.51,-125.57 136.91,-127.48 139.28,-129.64 141.64,-131.79 144.03,-133.43 146.41,-135.06 147.72,-136.76 149.03,-138.45 150.65,-140.11 152.27,-141.78 154.49,-143.68 156.70,-145.59 159.54,-147.47 162.39,-149.35 164.68,-150.52 166.98,-151.70 168.90,-153.60 170.83,-155.50 173.08,-156.75 175.33,-158.00 177.27,-158.87 179.22,-159.73 181.73,-160.81 184.25,-161.89 187.51,-161.90 190.78,-161.91 192.57,-158.23 194.36,-154.56 193.88,-152.32 193.40,-150.08 192.98,-147.61 192.56,-145.13 190.62,-141.41 188.68,-137.68 187.14,-134.67 185.59,-131.65 183.92,-127.79 182.24,-123.93 180.54,-118.60 178.84,-113.26 177.05,-106.45 175.26,-99.65 173.62,-92.25 171.97,-84.86 170.49,-77.21 169.01,-69.56 167.67,-62.16 166.33,-54.76 165.33,-48.32 164.33,-41.87 163.50,-36.07 162.67,-30.27 161.84,-24.81 161.00,-19.34 160.42,-13.98 159.85,-8.62 159.34,-3.32 158.84,1.96 158.41,6.81 157.97,11.65 157.57,15.90 157.16,20.15 156.91,23.78 156.65,27.41 156.64,30.60 156.64,33.79 156.75,36.55 156.85,39.31 157.15,42.96 157.46,46.61 157.27,49.45 157.08,52.30 157.01,52.66 156.94,53.02 156.74,53.57 156.53,54.11 156.19,54.59 155.86,55.08 155.42,55.46 154.98,55.85 154.46,56.12 153.94,56.39 153.37,56.53 152.80,56.67 152.21,56.67 151.63,56.66 151.06,56.52 150.49,56.38 149.97,56.11 149.46,55.83 149.02,55.44 148.58,55.05 148.25,54.57 147.92,54.09 147.71,53.54 147.51,52.99 147.44,52.41 147.37,51.83 147.44,51.24 147.52,50.66 144.96,50.76 142.41,50.86 139.02,49.28 135.64,47.70 130.42,45.65 125.19,43.61 118.31,41.22 111.43,38.84 103.34,36.06 95.24,33.29 86.53,30.48 77.82,27.67 69.02,25.09 60.22,22.52 51.59,19.85 42.97,17.18 34.62,14.40 26.27,11.62 18.62,9.35 10.97,7.09 4.64,5.48 -1.69,3.88 -7.03,2.57 -12.36,1.27 -16.82,0.22 -21.28,-0.83 -24.68,-1.33 -28.07,-1.84 -30.23,-1.88 -32.38,-1.92 -34.91,-1.71 -37.44,-1.51 -37.68,-1.48 -37.91,-1.45 -38.42,-1.53 -38.93,-1.62 -39.41,-1.82 -39.89,-2.02 -40.30,-2.34 -40.71,-2.65 -41.04,-3.05 -41.37,-3.45 -41.59,-3.92 -41.81,-4.38 -41.91,-4.89 -42.01,-5.40 -41.99,-5.91 -41.97,-6.43 -41.83,-6.93 -41.68,-7.42 -41.42,-7.87 -41.16,-8.32 -40.81,-8.69 -40.45,-9.07 -40.01,-9.34 -39.57,-9.62 -39.08,-9.78 -38.59,-9.94 -38.07,-9.98 -37.56,-10.03 -36.13,-10.09 -34.70,-10.15 -34.00,-10.04 -33.30,-9.93 -32.67,-9.59 -32.04,-9.26 -31.55,-8.75 -31.06,-8.24 -30.75,-7.59 -30.45,-6.95 -30.37,-6.24 -30.29,-5.53 -30.44,-4.84 -30.59,-4.14 -30.96,-3.53 -31.32,-2.92 -31.86,-2.46 -32.40,-1.99 -33.06,-1.73 -33.72,-1.46 -34.43,-1.42 -35.14,-1.38 -35.83,-1.57 -36.51,-1.75 -37.10,-2.15 -37.69,-2.55 -38.13,-3.11 -38.56,-3.68 -38.79,-4.35 -39.02,-5.02 -39.02,-5.73 -39.03,-6.45 -38.80,-7.12 -38.58,-7.80 -38.15,-8.36 -37.72,-8.93 -37.13,-9.33 -36.55,-9.73 -35.86,-9.93 -35.18,-10.12 -34.47,-10.09 -33.76,-10.05 -33.10,-9.79 -32.43,-9.53 -31.89,-9.07 -31.35,-8.61 -30.98,-8.00 -30.61,-7.40 -30.45,-6.70 -30.29,-6.01 -30.37,-5.30 -30.44,-4.59 -30.74,-3.95 -31.03,-3.30 -31.52,-2.78 -32.01,-2.26 -32.64,-1.93 -33.26,-1.59 -33.96,-1.47 -34.67,-1.36 -34.67,-1.36 -34.66,-1.36 -36.29,-1.40 -37.91,-1.45 -38.42,-1.53 -38.93,-1.62 -39.41,-1.82 -39.88,-2.02 -40.30,-2.34 -40.71,-2.65 -41.04,-3.05 -41.36,-3.45 -41.59,-3.92 -41.81,-4.38 -41.91,-4.89 -42.01,-5.40 -41.99,-5.91 -41.97,-6.43 -41.83,-6.93 -41.68,-7.42 -41.42,-7.87 -41.16,-8.32 -40.81,-8.69 -40.45,-9.06 -40.01,-9.34 -39.57,-9.62 -39.08,-9.78 -38.59,-9.94 -38.07,-9.98 -37.56,-10.03 -36.77,-9.87 -35.98,-9.72 -33.75,-9.24 -31.52,-8.76 -29.23,-8.24 -26.94,-7.71 -23.50,-6.90 -20.05,-6.09 -15.57,-5.06 -11.09,-4.03 -5.72,-2.76 -0.35,-1.49 6.10,0.08 12.55,1.67 20.31,3.88 28.07,6.10 36.39,8.76 44.70,11.43 53.31,13.94 61.93,16.46 70.85,18.88 79.77,21.29 88.60,23.86 97.43,26.43 105.61,28.86 113.78,31.28 120.87,33.24 127.96,35.19 133.65,36.73 139.34,38.28 142.99,39.46 146.65,40.65 149.74,41.97 152.84,43.30 154.85,45.69 156.87,48.09 156.91,50.55 156.94,53.02 156.74,53.57 156.53,54.11 156.19,54.59 155.86,55.08 155.42,55.46 154.98,55.85 154.46,56.12 153.94,56.39 153.37,56.53 152.80,56.67 152.21,56.67 151.63,56.66 151.06,56.52 150.49,56.38 149.97,56.11 149.46,55.83 149.02,55.44 148.58,55.05 148.25,54.57 147.92,54.09 147.71,53.54 147.51,52.99 147.44,52.41 147.37,51.83 147.44,51.24 147.52,50.66 147.99,49.65 148.47,48.63 148.87,46.02 149.26,43.42 149.47,41.27 149.69,39.13 149.93,36.30 150.17,33.47 150.49,30.13 150.81,26.79 151.31,23.22 151.81,19.65 152.18,15.42 152.56,11.19 152.96,6.33 153.37,1.47 153.83,-3.85 154.28,-9.19 154.81,-14.67 155.34,-20.16 156.09,-25.61 156.83,-31.05 157.54,-36.89 158.26,-42.74 159.11,-49.28 159.96,-55.82 161.08,-63.28 162.20,-70.73 163.39,-78.52 164.59,-86.30 165.85,-93.88 167.11,-101.45 168.40,-108.51 169.68,-115.56 170.79,-121.39 171.89,-127.22 172.91,-131.83 173.92,-136.44 175.05,-139.94 176.19,-143.44 178.05,-147.57 179.91,-151.70 181.29,-153.83 182.68,-155.96 185.14,-152.12 187.61,-148.28 184.93,-147.05 182.26,-145.83 179.75,-144.10 177.24,-142.37 174.38,-140.35 171.51,-138.34 168.93,-136.61 166.36,-134.87 164.45,-133.18 162.55,-131.49 160.29,-129.31 158.03,-127.13 159.20,-129.04 160.37,-130.94 158.97,-128.40 157.57,-125.86 155.90,-124.52 154.23,-123.18 151.66,-121.30 149.09,-119.42 147.30,-117.25 145.51,-115.08 144.39,-112.56 143.26,-110.05 141.98,-107.48 140.70,-104.91 137.82,-103.56 134.94,-102.21 131.17,-103.96 127.40,-105.72 125.93,-107.73 124.47,-109.75 122.61,-112.00 120.75,-114.25 119.02,-116.78 117.29,-119.31 116.18,-122.11 115.07,-124.91 112.90,-127.65 110.72,-130.38 108.24,-133.70 105.75,-137.02 104.46,-138.83 103.16,-140.64 101.85,-142.57 100.55,-144.50 99.17,-146.64 97.80,-148.78 96.39,-151.32 94.98,-153.86 93.65,-156.82 92.32,-159.78 91.59,-164.20 90.87,-168.63 90.99,-170.83 91.10,-173.03 92.47,-175.53 93.84,-178.03 96.11,-177.48 98.38,-176.92 95.90,-174.44 93.42,-171.95 91.44,-169.41 89.46,-166.87 87.27,-163.52 85.09,-160.17 83.05,-156.94 81.01,-153.72 79.12,-150.60 77.23,-147.47 75.33,-144.41 73.43,-141.36 71.65,-138.75 69.87,-136.14 68.22,-133.44 66.56,-130.73 64.92,-128.11 63.28,-125.49 61.80,-123.42 60.32,-121.36 57.76,-117.67 55.20,-113.99 53.44,-111.40 51.67,-108.81 49.66,-106.01 47.65,-103.21 46.37,-100.82 45.08,-98.43 42.26,-97.03 39.43,-95.64 36.59,-96.29 33.75,-96.93 30.81,-99.08 27.86,-101.23 25.19,-103.55 22.51,-105.87 20.53,-107.24 18.55,-108.61 16.36,-110.12 14.18,-111.63 12.00,-113.35 9.83,-115.08 8.14,-116.88 6.45,-118.67 4.30,-121.48 2.15,-124.29 0.80,-126.89 -0.54,-129.49 -1.79,-131.72 -3.03,-133.96 -2.97,-134.41 -2.92,-134.87 -2.75,-135.30 -2.59,-135.73 -2.33,-136.11 -2.07,-136.48 -1.73,-136.79 -1.38,-137.09 -0.98,-137.31 -0.57,-137.52 -0.12,-137.63 0.31,-137.74 0.77,-137.74 1.23,-137.74 1.68,-137.63 2.12,-137.52 2.53,-137.31 2.94,-137.09 3.28,-136.79 3.63,-136.48 3.89,-136.11 4.15,-135.73 4.31,-135.30 4.47,-134.87 4.53,-134.41 4.58,-133.96 4.25,-131.72 3.91,-129.49 3.72,-126.41 3.53,-123.33 3.55,-118.33 3.57,-113.34 3.60,-105.55 3.63,-97.76 3.67,-86.17 3.71,-74.59 3.76,-58.57 3.80,-42.55 3.85,-32.59 3.89,-22.62 3.92,-15.20 3.94,-7.78 3.79,-3.79 3.64,0.20 3.56,0.63 3.48,1.06 3.30,1.47 3.12,1.87 2.85,2.21 2.58,2.56 2.24,2.83 1.90,3.11 1.50,3.29 1.10,3.47 0.66,3.55 0.23,3.63 -0.20,3.61 -0.64,3.58 -1.06,3.46 -1.48,3.33 -1.85,3.10 -2.23,2.88 -2.54,2.57 -2.86,2.26 -3.08,1.88 -3.31,1.51 -3.45,1.09 -3.58,0.67 -3.61,0.23 -3.64,-0.20 -3.64,-0.20 L -3.64,-0.20 Z"></path></g></svg>