<svg version="1.1" xmlns="http://www.w3.org/2000/svg" viewBox="0 0 1384.9999999999995 798.3333333333334" width="4154.999999999998" height="2395" filter="invert(93%) hue-rotate(180deg)">
  <!-- svg-source:excalidraw -->
  
  <defs>
    <style class="style-fonts">
      @font-face {
        font-family: "Virgil";
        src: url("https://excalidraw.com/Virgil.woff2");
      }
      @font-face {
        font-family: "Cascadia";
        src: url("https://excalidraw.com/Cascadia.woff2");
      }
    </style>
  </defs>
  <g transform="translate(419.99999999999955 595) rotate(0 272.5000000000002 -195.83333333333331)" stroke="none"><path fill="#000000" d="M -8.92,0 Q -8.92,0 -9.11,-4.79 -9.30,-9.58 -8.84,-15.83 -8.38,-22.08 -8.28,-27.25 -8.19,-32.42 -8.08,-38.42 -7.97,-44.42 -7.76,-51.29 -7.56,-58.16 -7.45,-64.92 -7.33,-71.67 -7.16,-78.86 -6.99,-86.04 -7.08,-91.97 -7.17,-97.90 -7.17,-104.25 -7.18,-110.60 -7.35,-115.70 -7.52,-120.80 -7.87,-126.72 -8.21,-132.65 -4.50,-138.19 -0.79,-143.73 4.35,-144.85 9.50,-145.98 14.10,-149.41 18.70,-152.84 24.30,-158.03 29.89,-163.23 34.62,-169.85 39.35,-176.46 43.69,-184.08 48.03,-191.70 50.88,-197.74 53.73,-203.77 56.22,-209.10 58.70,-214.43 63.21,-219.39 67.72,-224.34 64.43,-221.77 61.14,-219.20 61.82,-220.56 62.50,-221.93 63.48,-223.09 64.47,-224.26 65.70,-225.15 66.94,-226.05 68.35,-226.62 69.77,-227.20 71.28,-227.41 72.79,-227.63 74.30,-227.48 75.82,-227.33 77.26,-226.82 78.70,-226.32 79.97,-225.48 81.25,-224.64 82.28,-223.52 83.32,-222.40 84.06,-221.07 84.80,-219.74 85.20,-218.26 85.60,-216.79 85.63,-215.27 85.67,-213.74 85.33,-212.25 85.00,-210.76 85.44,-206.35 85.87,-201.95 84.52,-192.93 83.17,-183.92 81.29,-172.83 79.40,-161.75 76.93,-146.09 74.45,-130.43 72.76,-114.88 71.07,-99.33 69.74,-82.67 68.41,-66.01 67.75,-45.14 67.10,-24.26 66.75,-6.26 66.40,11.73 66.68,31.76 66.96,51.80 67.52,68.44 68.08,85.09 70.18,100.53 72.29,115.98 75.51,128.59 78.73,141.20 82.39,150.18 86.05,159.16 89.29,164.63 92.52,170.10 96.04,173.11 99.55,176.11 106.36,179.52 113.17,182.92 115.92,183.56 118.67,184.19 119.55,184.80 120.42,185.42 121.13,186.23 121.83,187.04 122.32,187.99 122.81,188.94 123.06,189.98 123.31,191.03 123.30,192.10 123.29,193.17 123.02,194.21 122.76,195.24 122.25,196.19 121.75,197.13 121.03,197.93 120.31,198.73 119.43,199.33 118.54,199.93 117.54,200.30 116.53,200.67 115.47,200.79 114.40,200.91 113.34,200.77 112.28,200.64 111.28,200.25 110.28,199.86 107.57,195.72 104.87,191.57 100.05,187.06 95.24,182.55 85.52,174.85 75.81,167.15 57.84,154.66 39.88,142.17 18.63,130.70 -2.61,119.22 -34.07,105.21 -65.53,91.19 -97.12,77.98 -128.71,64.78 -165.50,51.51 -202.29,38.24 -235.26,25.84 -268.23,13.43 -295.19,2.87 -322.16,-7.69 -345.30,-18.99 -368.45,-30.28 -381.52,-39.67 -394.60,-49.06 -400.24,-58.95 -405.89,-68.84 -404.29,-78.82 -402.68,-88.80 -392.83,-101.54 -382.98,-114.28 -366.19,-128.73 -349.40,-143.18 -319.57,-161.85 -289.75,-180.53 -250.25,-202.34 -210.75,-224.14 -149.74,-251.68 -88.73,-279.22 -26.85,-304.34 35.02,-329.46 116.97,-358.37 198.93,-387.28 271.62,-411.07 344.32,-434.86 424.16,-457.45 504.01,-480.04 570.51,-498.26 637.01,-516.47 694.56,-530.46 752.12,-544.45 792.39,-553.75 832.66,-563.05 863.20,-569.87 893.73,-576.70 910.52,-580.56 927.31,-584.41 935.00,-586.22 942.68,-588.02 944.35,-588.09 946.02,-588.16 946.77,-588.22 947.52,-588.29 948.26,-588.18 949.01,-588.07 949.70,-587.78 950.40,-587.49 951.01,-587.05 951.61,-586.60 952.09,-586.02 952.58,-585.44 952.91,-584.77 953.24,-584.09 953.40,-583.35 953.55,-582.62 953.53,-581.86 953.51,-581.11 953.31,-580.39 953.11,-579.66 952.74,-579.00 952.37,-578.35 951.85,-577.80 951.33,-577.25 950.70,-576.84 950.07,-576.43 949.36,-576.19 948.65,-575.94 945.37,-570.21 942.10,-564.48 937.55,-560.23 933.00,-555.99 929.59,-552.47 926.17,-548.95 923.61,-546.19 921.05,-543.43 919.84,-542.64 918.63,-541.85 917.24,-541.48 915.84,-541.11 914.40,-541.21 912.96,-541.31 911.63,-541.86 910.29,-542.41 909.20,-543.36 908.12,-544.31 907.39,-545.56 906.66,-546.80 906.37,-548.22 906.08,-549.63 906.25,-551.06 906.43,-552.50 907.05,-553.80 907.68,-555.10 908.68,-556.14 909.69,-557.17 910.97,-557.83 912.26,-558.49 913.69,-558.70 915.12,-558.92 916.54,-558.67 917.96,-558.41 919.22,-557.72 920.49,-557.03 921.47,-555.96 922.45,-554.90 923.04,-553.58 923.63,-552.27 923.76,-550.83 923.90,-549.39 923.57,-547.99 923.24,-546.58 922.48,-545.35 921.72,-544.13 920.60,-543.21 919.49,-542.29 918.14,-541.77 916.80,-541.25 915.35,-541.20 913.91,-541.14 912.52,-541.54 911.14,-541.95 909.95,-542.77 908.77,-543.60 907.91,-544.76 907.05,-545.92 906.61,-547.30 906.17,-548.67 906.19,-550.11 906.21,-551.56 906.69,-552.92 907.17,-554.28 908.06,-555.42 908.95,-556.56 908.95,-556.56 908.94,-556.56 911.90,-558.89 914.86,-561.22 918.91,-564.58 922.96,-567.95 926.96,-570.89 930.96,-573.83 934.55,-577.53 938.13,-581.23 942.07,-584.69 946.02,-588.16 946.77,-588.22 947.52,-588.29 948.26,-588.18 949.01,-588.07 949.70,-587.78 950.40,-587.49 951.01,-587.05 951.61,-586.60 952.09,-586.02 952.58,-585.44 952.91,-584.77 953.24,-584.09 953.40,-583.35 953.55,-582.62 953.53,-581.86 953.51,-581.11 953.31,-580.39 953.11,-579.66 952.74,-579.00 952.37,-578.35 951.85,-577.80 951.33,-577.25 950.70,-576.84 950.07,-576.43 949.36,-576.19 948.65,-575.94 946.71,-576.53 944.78,-577.12 937.22,-575.65 929.66,-574.17 912.84,-570.31 896.03,-566.45 865.52,-559.63 835.02,-552.81 794.81,-543.52 754.60,-534.24 697.19,-520.29 639.78,-506.34 573.33,-488.13 506.87,-469.92 427.23,-447.39 347.59,-424.86 275.01,-401.11 202.43,-377.36 120.70,-348.53 38.97,-319.71 -22.71,-294.67 -84.40,-269.62 -145.03,-242.27 -205.65,-214.92 -244.90,-193.25 -284.15,-171.58 -313.34,-153.36 -342.53,-135.14 -358.63,-121.40 -374.72,-107.65 -383.61,-96.91 -392.50,-86.16 -394.41,-79.21 -396.31,-72.26 -392.18,-64.86 -388.05,-57.47 -375.87,-48.73 -363.69,-40.00 -340.93,-28.94 -318.18,-17.88 -291.26,-7.42 -264.34,3.04 -231.40,15.31 -198.46,27.58 -161.36,40.81 -124.25,54.03 -92.46,67.09 -60.67,80.15 -28.68,94.10 3.30,108.05 25.36,119.55 47.41,131.04 65.96,143.28 84.51,155.52 95.30,163.17 106.10,170.82 112.39,177.50 118.67,184.19 119.55,184.80 120.42,185.42 121.13,186.23 121.83,187.03 122.32,187.99 122.81,188.94 123.06,189.98 123.31,191.03 123.30,192.10 123.29,193.17 123.02,194.21 122.76,195.24 122.25,196.19 121.75,197.13 121.03,197.93 120.31,198.73 119.43,199.33 118.54,199.93 117.54,200.30 116.53,200.67 115.47,200.79 114.40,200.91 113.34,200.77 112.28,200.64 111.28,200.25 110.28,199.86 107.82,198.73 105.36,197.59 101.13,194.92 96.90,192.24 93.21,188.91 89.51,185.58 85.64,180.71 81.76,175.84 78.88,169.56 76.00,163.27 72.05,153.61 68.09,143.95 64.65,130.74 61.22,117.53 58.94,101.53 56.66,85.54 55.92,68.78 55.18,52.03 54.66,31.82 54.14,11.60 54.16,-6.46 54.19,-24.53 54.41,-45.70 54.63,-66.86 55.36,-83.71 56.09,-100.57 57.00,-116.52 57.91,-132.47 59.29,-148.11 60.67,-163.74 61.10,-174.41 61.53,-185.08 61.11,-193.43 60.69,-201.78 60.57,-206.22 60.46,-210.67 60.80,-214.93 61.14,-219.20 61.82,-220.56 62.50,-221.93 63.48,-223.09 64.47,-224.26 65.70,-225.15 66.94,-226.05 68.35,-226.62 69.76,-227.19 71.27,-227.41 72.78,-227.63 74.30,-227.48 75.82,-227.33 77.26,-226.83 78.70,-226.32 79.97,-225.48 81.25,-224.64 82.28,-223.52 83.32,-222.40 84.06,-221.07 84.80,-219.74 85.20,-218.26 85.60,-216.79 85.63,-215.27 85.67,-213.74 85.34,-212.25 85.00,-210.76 83.81,-208.50 82.62,-206.24 80.50,-202.31 78.38,-198.39 75.47,-192.88 72.57,-187.37 70.50,-183.60 68.44,-179.84 66.20,-175.95 63.97,-172.06 61.76,-168.10 59.56,-164.15 56.51,-159.11 53.46,-154.06 50.44,-150.43 47.42,-146.79 40.84,-140.66 34.25,-134.52 28.48,-130.57 22.70,-126.62 17.12,-129.01 11.55,-131.39 11.20,-126.09 10.85,-120.79 10.68,-115.70 10.51,-110.60 10.50,-104.25 10.49,-97.89 10.40,-91.96 10.30,-86.02 10.46,-78.83 10.62,-71.63 10.70,-64.85 10.79,-58.06 10.92,-51.11 11.04,-44.15 10.98,-37.92 10.92,-31.69 10.61,-26.13 10.30,-20.56 9.80,-15.07 9.30,-9.58 9.11,-4.79 8.92,0 8.79,1.06 8.66,2.13 8.28,3.14 7.90,4.14 7.29,5.03 6.68,5.91 5.87,6.63 5.06,7.34 4.11,7.84 3.16,8.34 2.11,8.60 1.07,8.86 -0.00,8.85 -1.07,8.85 -2.12,8.60 -3.16,8.34 -4.11,7.84 -5.07,7.34 -5.87,6.63 -6.68,5.91 -7.29,5.03 -7.90,4.14 -8.28,3.14 -8.66,2.13 -8.79,1.06 -8.92,-0.00 -8.92,-0.00 L -8.92,0 Z"></path></g></svg>